<svg id="Foreground" width="5847.1094" height="2848.5" version="1.1" xml:space="preserve" xmlns="http://www.w3.org/2000/svg">
  <style id="style824" type="text/css">
    .st0,.st1{fill-rule:evenodd;clip-rule:evenodd;fill:#fff}.st1{fill:#f7941d}.st2{fill:#fff}
  </style>
  <g id="g858" transform="translate(-16.6 -18.3)">
    <g id="g840" fill="#252525" style="fill:#252525;fill-opacity:1">
      <path id="path826" class="st0" d="M1469.1 2473.8c0-154.6-86.5-222.6-238.5-222.6-217.4 0-240.8 138.2-240.7 299.8 0 185.1 28.1 315.1 240.9 315.1 154.3 0 240.8-69.1 240.8-229.5h-164.8c0 77.3-24.5 124.1-76 124.1-60.8 0-76-38.7-76-219.1 0-123 5.8-185.1 75.9-185 51.5 0 73.7 29.3 73.7 117.2z" style="fill:#252525;fill-opacity:1"/>
      <path id="path828" class="st0" d="M1767.1 2263h-164.8l.1 591.5h164.8zm-164.9-254.2v130H1767v-130z" style="fill:#252525;fill-opacity:1"/>
      <path id="path830" class="st0" d="M2078 2263.1h-164.8l.2 591.5h164.8l-.1-407.6c0-52.7 9.3-93.7 61.9-93.7 52.6 0 61.9 41 62 93.7l.1 407.6h164.8l-.1-474.4c0-82-69-128.8-147.3-128.9-30.4 0-57.3 4.7-80.7 16.4-22.2 10.5-42.1 28.1-58.4 55.1h-2.3z" style="fill:#252525;fill-opacity:1"/>
      <path id="path832" class="st0" d="M2649.6 2492.7c0-50.4-1.2-139.4 74.8-139.4 78.3 0 76 82 76 139.4zm315.7 92.7c5.8-189.8-18.8-333.8-240.9-333.9-217.4 0-240.8 138.2-240.7 299.8 0 185.1 28.1 315.1 240.9 315.1 77.1 0 135.6-21 174.2-57.4 39.7-36.3 60.8-89 63.1-153.4h-167.2c0 49.2-11.7 105.4-70.1 105.4-72.5 0-74.8-105.4-74.8-175.7z" style="fill:#252525;fill-opacity:1"/>
      <path id="path834" class="st0" d="M3234 2263.3h-164.8l.1 591.5h164.8l-.1-407.6c0-52.7 9.3-93.7 61.9-93.7 52.6 0 62 41 62 93.7l.1 407.6h161.3l-.1-407.6c0-52.7 9.3-93.7 61.9-93.7 52.6 0 62 41 62 93.7l.1 407.6H3808l-.1-474.4c0-82-69-128.9-147.4-128.9-67.8 0-114.5 23.4-153.1 74.9-26.9-46.9-73.7-75-132.1-75-62 0-106.4 18.7-139.1 71.5h-2.3z" style="fill:#252525;fill-opacity:1"/>
      <path id="path836" class="st0" d="M4212.5 2569.2c0 64.4 15.2 195.6-81.8 195.6-53.8 0-60.8-51.6-60.8-93.7 0-105.4 60.7-98.4 142.6-101.9zm161.3-119.4c0-107.8-26.9-198-236.2-198-63.1 0-116.9 10.5-154.3 38.7-38.5 26.9-60.8 72.6-60.8 144.1h161.3c0-46.9 4.7-90.2 62-90.2 59.6 0 66.6 36.3 66.6 86.7v45.7c-153.1-2.4-303.9 5.8-303.9 201.4 0 103.1 42.1 188.6 156.7 188.6 71.3 0 119.2-29.3 154.3-90.2h2.3l7 78.5h153.1c-3.5-36.3-8.2-73.8-8.2-110.1z" style="fill:#252525;fill-opacity:1"/>
      <path id="path838" class="st0" d="M4479 2665.3c-9.3 165.2 86.6 201.5 230.3 201.5 136.8 0 220.9-77.2 220.9-180.3 0-189.8-290-185.1-290-278.8 0-39.8 19.9-63.3 56.1-63.3 17.5 0 31.6 2.4 42.1 12.9 11.7 10.6 16.3 35.1 16.4 76.1h161.3c9.3-127.7-92.4-181.6-204.6-181.6-106.4 0-232.6 38.6-232.6 166.3 0 188.6 289.9 160.5 290 285.9 0 39.8-28 60.9-60.8 60.9-32.7 0-50.3-9.4-59.6-28.1-8.2-18.7-9.3-44.5-8.2-71.4z" style="fill:#252525;fill-opacity:1"/>
    </g>
    <path id="path846" class="st2" d="M2754 942.1s-143.8-20.9-136.6-173.4c5.4-115.7 110-141.9 136.6-142.5 26.6-.6 822.7-2.1 853.7 0s125.6 25.5 131.5 142.5c6.5 128.8-90.3 168.6-131.5 173.4-25.4 3-853.7 0-853.7 0zm-555.2-232.9V261.5s-12.4-188.3 173-194.8h573.9c26.6 0 640-2.1 671 0s128.9 36.1 129.9 153.3c1 119.3-104.4 153-129.9 154.9-25.6 1.8-671 0-671 0s-2.3-.3-6.2-1.1h-424.7v349.8c1.8 25.6 0 671.8 0 671.8s-20.9 139.2-173.4 132c-115.7-5.4-141.9-105.5-142.5-132-.6-26.6-2.1-640.8 0-671.8.2-4.2-1.3-9-.1-14.4z" fill="#252525" style="fill:#252525;fill-opacity:1"/>
    <g id="g854" fill="#252525" style="fill:#252525;fill-opacity:1">
      <path id="path848" class="st2" d="M4195.1 351.7s-81.7-95.8 21.9-208c78.5-85.1 160.4-50.6 181.2-34 20.7 16.6 1393 1161.7 1415.4 1183.3 22.4 21.5 89.2 108.5 18.5 202-77.8 102.8-200.8 55-221.6 40-20.8-15-1415.4-1183.3-1415.4-1183.3Z" style="fill:#252525;fill-opacity:1"/>
      <path id="path850" class="st2" d="M4438.1 1575.7s-103.8 71.2-204.6-43.5c-76.4-87-33.6-164.9-14.8-183.7 18.7-18.9 369.5-358.2 393.3-378.2 23.8-20 104.5-65.9 190 14.2 94.1 88.1 57.7 182.8 40.6 201.9-17.2 19-404.5 389.3-404.5 389.3z" style="fill:#252525;fill-opacity:1"/>
      <path id="path852" class="st2" d="M5391.8 671.9s-103.8 71.2-204.6-43.5c-76.4-87-33.6-164.9-14.8-183.7 18.7-18.9 369.5-358.2 393.3-378.2 23.8-20 104.5-65.9 190 14.2 94.1 88.1 57.7 182.8 40.6 201.9-17.2 19-404.5 389.3-404.5 389.3z" style="fill:#252525;fill-opacity:1"/>
    </g>
    <g id="g879">
      <g id="g844">
        <path id="path842" class="st1" d="M1742.9 1290.5s86.3 90.3-17.3 202.5c-78.5 85.1-160.4 50.6-181.2 34-20.7-16.6-503.8-420-526.2-441.5-22.4-21.5-64.5-87.3 6.5-180.6 72.4-95.2 171.2-70.9 192-55.9 20.8 15 526.2 441.5 526.2 441.5z"/>
      </g>
      <path id="path856" class="st1" d="M16.6 486.2v550.1s12.5 439.4 503.7 491.2c1.8 5.4 398.3 0 398.3 0s112.9-5.4 132.6-133.5c0 0 14.7-158.1-148.7-164.8H552.4s-257.2-30.4-237.5-367.9c1.8 0 0-303.6 0-303.6S331 325.5 568.5 321.9h671.6s217.9 3.6 212.5 259v228.6s12.5 116.1 153.6 116.1c1.8 0 136.6 4.5 144.7-112.5 1.8-1.8 0-348.3 0-348.3s0-432.2-605.5-446.5H497.1S80.3 24.8 18.4 466.6c0 3.6-1.8 19.6-1.8 19.6z"/>
    </g>
  </g>
</svg>
